{"title":"Blood Widow 2014 UNRATED HDRIP x264 AC3 TiTAN","uid":10376779,"size":868827518,"categoryP":"video","categoryS":"movies","magnet":"?xt=urn:btih:27b78c2c52c709aa364088c5f7268ed3a00d864d&amp;dn=Blood+Widow+2014+UNRATED+HDRIP+x264+AC3+TiTAN&amp;tr=udp%3A%2F%2Ftracker.openbittorrent.com%3A80&amp;tr=udp%3A%2F%2Fopen.demonii.com%3A1337&amp;tr=udp%3A%2F%2Ftracker.coppersurfer.tk%3A6969&amp;tr=udp%3A%2F%2Fexodus.desync.com%3A6969","seeders":1,"leechers":0,"uploader":"xxxlavalxxx","files":-1,"time":1403015796,"description":"[IMG]http://i.imgur.com/vI6zBYL.jpg[/IMG]\n\n\n &lt;a href=&quot;\nhttp://www.imdb.com/title/tt2909124/&quot; rel=&quot;nofollow&quot; target=&quot;_NEW&quot;&gt;\nhttp://www.imdb.com/title/tt2909124/&lt;/a&gt;\n\n\nLaurie and Hugh are a successful young couple who have just closed on a weekend home away from the city. Unbeknownst to them, the neighboring property contains the crumbling remains of a boarding school that was shuttered in the wake of an unspeakable massacre. The sole survivor of that massacre still resides in the ruins of the school, hiding from the world and wanting only to be left alone. When Laurie and Hugh's friends explore the property, they have no idea that they disturbed an emotionally-broken killing machine: The Blood Widow.\n\nDirector: Jeremiah Buckhalt\nWriters: Chad Coup, Ian H. Davis\nStars: Danielle Lilley, Brandon Kyle Peters, Christopher de Padua \nGenres: Horror\nCountry: USA\nLanguage: English\n\n\nSource: Itunes\n\nGeneral\n\nFormat                                   : Matroska\nFormat version                           : Version 2\nFile size                                : 829 MiB\nDuration                                 : 1h 22mn\nOverall bit rate mode                    : Variable\nOverall bit rate                         : 1 399 Kbps\nEncoded date                             : UTC 2014-06-17 11:27:39\nWriting application                      : mkvmerge v7.0.0 ('Where We Going') 32bit built on Jun  9 2014 15:08:34\nWriting library                          : libebml v1.3.0 + libmatroska v1.4.1\n\nVideo\nID                                       : 1\nFormat                                   : AVC\nFormat/Info                              : Advanced Video Codec\nFormat profile                           : &lt;a class=&quot;__cf_email__&quot; href=&quot;/cdn-cgi/l/email-protection&quot; data-cfemail=&quot;bbf3d2dcd3fbf78f958a&quot;&gt;[email&amp;#160;protected]&lt;/a&gt;&lt;script cf-hash='f9e31' type=&quot;text/javascript&quot;&gt;\n/* &lt;![CDATA[ */!function(){try{var t=&quot;currentScript&quot;in document?document.currentScript:function(){for(var t=document.getElementsByTagName(&quot;script&quot;),e=t.length;e--;)if(t[e].getAttribute(&quot;cf-hash&quot;))return t[e]}();if(t&amp;&amp;t.previousSibling){var e,r,n,i,c=t.previousSibling,a=c.getAttribute(&quot;data-cfemail&quot;);if(a){for(e=&quot;&quot;,r=parseInt(a.substr(0,2),16),n=2;a.length-n;n+=2)i=parseInt(a.substr(n,2),16)^r,e+=String.fromCharCode(i);e=document.createTextNode(e),c.parentNode.replaceChild(e,c)}}}catch(u){}}();/* ]]&gt; */&lt;/script&gt;\nFormat settings, CABAC                   : Yes\nFormat settings, ReFrames                : 3 frames\nCodec ID                                 : V_MPEG4/ISO/AVC\nDuration                                 : 1h 22mn\nBit rate mode                            : Variable\nBit rate                                 : 1 147 Kbps\nMaximum bit rate                         : 40.0 Mbps\nWidth                                    : 720 pixels\nHeight                                   : 400 pixels\nDisplay aspect ratio                     : 16:9\nFrame rate mode                          : Constant\nFrame rate                               : 23.976 fps\nColor space                              : YUV\nChroma subsampling                       : 4:2:0\nBit depth                                : 8 bits\nScan type                                : Progressive\nBits/(Pixel*Frame)                       : 0.166\nStream size                              : 679 MiB (82%)\nWriting library                          : x264 core 142 r2431 ac76440\nDefault                                  : Yes\nForced                                   : No\nColor primaries                          : BT.709\nTransfer characteristics                 : BT.709\nMatrix coefficients                      : BT.709\n\nAudio\nID                                       : 2\nFormat                                   : AC-3\nFormat/Info                              : Audio Coding 3\nMode extension                           : CM (complete main)\nFormat settings, Endianness              : Big\nCodec ID                                 : A_AC3\nDuration                                 : 1h 22mn\nBit rate mode                            : Constant\nBit rate                                 : 224 Kbps\nChannel(s)                               : 2 channels\nChannel positions                        : Front: L R\nSampling rate                            : 48.0 KHz\nBit depth                                : 16 bits\nCompression mode                         : Lossy\nStream size                              : 133 MiB (16%)\nLanguage                                 : English\nDefault                                  : Yes\nForced                                   : No\n\n\n\nscreens\n &lt;a href=&quot;\nhttp://i.imgur.com/j7i49iz.jpg&quot; rel=&quot;nofollow&quot; target=&quot;_NEW&quot;&gt;\nhttp://i.imgur.com/j7i49iz.jpg&lt;/a&gt; &lt;a href=&quot;\nhttp://i.imgur.com/jZSYvrW.jpg&quot; rel=&quot;nofollow&quot; target=&quot;_NEW&quot;&gt;\nhttp://i.imgur.com/jZSYvrW.jpg&lt;/a&gt; &lt;a href=&quot;\nhttp://i.imgur.com/f3jEJWp.jpg&quot; rel=&quot;nofollow&quot; target=&quot;_NEW&quot;&gt;\nhttp://i.imgur.com/f3jEJWp.jpg&lt;/a&gt; &lt;a href=&quot;\nhttp://i.imgur.com/9LbFsVM.jpg&quot; rel=&quot;nofollow&quot; target=&quot;_NEW&quot;&gt;\nhttp://i.imgur.com/9LbFsVM.jpg&lt;/a&gt; &lt;a href=&quot;\nhttp://i.imgur.com/ZnCShvW.jpg&quot; rel=&quot;nofollow&quot; target=&quot;_NEW&quot;&gt;\nhttp://i.imgur.com/ZnCShvW.jpg&lt;/a&gt; &lt;a href=&quot;\nhttp://i.imgur.com/4Qp1nsV.jpg&quot; rel=&quot;nofollow&quot; target=&quot;_NEW&quot;&gt;\nhttp://i.imgur.com/4Qp1nsV.jpg&lt;/a&gt;\n","torrent":{"xt":"urn:btih:27b78c2c52c709aa364088c5f7268ed3a00d864d","amp;dn":"Blood+Widow+2014+UNRATED+HDRIP+x264+AC3+TiTAN","amp;tr":["udp%3A%2F%2Ftracker.openbittorrent.com%3A80","udp%3A%2F%2Fopen.demonii.com%3A1337","udp%3A%2F%2Ftracker.coppersurfer.tk%3A6969","udp%3A%2F%2Fexodus.desync.com%3A6969"],"infoHash":"27b78c2c52c709aa364088c5f7268ed3a00d864d","infoHashBuffer":{"type":"Buffer","data":[39,183,140,44,82,199,9,170,54,64,136,197,247,38,142,211,160,13,134,77]},"announce":[],"urlList":[]}}